HIERARCHY
ROOT pelvis
{
  OFFSET 0 100 0
  CHANNELS 6 Xposition Yposition Zposition Zrotation Xrotation Yrotation
  JOINT pelvis_right_femur
  {
    OFFSET -10.78128 -3.44521 -0.5502486
    CHANNELS 3 Zrotation Xrotation Yrotation
    JOINT right_femur_tibia
    {
      OFFSET -0.8047443 -44.0398 -0.1307829
      CHANNELS 3 Zrotation Xrotation Yrotation
      JOINT right_tibia_foot
      {
        OFFSET 3.006224 -47.83518 -5
        CHANNELS 3 Zrotation Xrotation Yrotation
        End Site
        {
          OFFSET 0 -5 15
        }
      }
    }
  }
  JOINT pelvis_left_femur
  {
    OFFSET 10.78128 -3.44521 -0.5502486
    CHANNELS 3 Zrotation Xrotation Yrotation
    JOINT left_femur_tibia
    {
      OFFSET 0.8047443 -44.0398 -0.1307829
      CHANNELS 3 Zrotation Xrotation Yrotation
      JOINT left_tibia_foot
      {
        OFFSET -4.370144 -48.10324 -4.275266
        CHANNELS 3 Zrotation Xrotation Yrotation
        End Site
        {
          OFFSET 0 -5 15
        }
      }
    }
  }
  JOINT pelvis_spine1
  {
    OFFSET 0 6.468898 -3.129235
    CHANNELS 3 Zrotation Xrotation Yrotation
    JOINT spine1
    {
      OFFSET 0 23.15396 4.99043
      CHANNELS 3 Zrotation Xrotation Yrotation
      JOINT spine2
      {
        OFFSET 0 20.79997 -5.064912
        CHANNELS 3 Zrotation Xrotation Yrotation
        JOINT neck
        {
          OFFSET 0 14.38658 9.616178
          CHANNELS 3 Zrotation Xrotation Yrotation
          End Site
          {
            OFFSET 0 20 0
          }
        }
      }
      JOINT right_manubrium
      {
        OFFSET -5.722621 16.35077 3.967754
        CHANNELS 3 Zrotation Xrotation Yrotation
        JOINT right_clavicle
        {
          OFFSET -13.16364 1.694482 -4.693211
          CHANNELS 3 Zrotation Xrotation Yrotation
          JOINT right_humerus
          {
            OFFSET -28.5034 -0.3100689 -2.792744
            CHANNELS 3 Zrotation Xrotation Yrotation
            JOINT right_radius
            {
              OFFSET -25.15693 0.02248979 -1.271978
              CHANNELS 3 Zrotation Xrotation Yrotation
              End Site
              {
                OFFSET -15 0 0
              }
            }
          }
        }
      }
      JOINT left_manubrium
      {
        OFFSET 5.722621 16.35077 3.967754
        CHANNELS 3 Zrotation Xrotation Yrotation
        JOINT left_clavicle
        {
          OFFSET 13.16364 1.694482 -4.693211
          CHANNELS 3 Zrotation Xrotation Yrotation
          JOINT left_humerus
          {
            OFFSET 29.39168 -1.063119 -2.237045
            CHANNELS 3 Zrotation Xrotation Yrotation
            JOINT left_radius
            {
              OFFSET 24.59957 -0.9528479 0.9047498
              CHANNELS 3 Zrotation Xrotation Yrotation
              End Site
              {
                OFFSET 15 -0 -0
              }
            }
          }
        }
      }
    }
  }
}
MOTION
Frames: 15
Frame Time: 0.0416666666667
0 103.5113 0 0.6086948 -2.366922 -0.2006622 4.511886 -16.0794 8.736791 -0 40.38411 -0 -7.776964 -15.36427 -1.964793 -7.07971 10.19701 -24.41911 -0 6.943313 -0 10.70613 -17.89742 30.20496 -3.452438 -3.597791 4.658258 2.166229 9.787772 -6.48822 2.033724 23.06043 6.195921 3.387203 -24.67559 9.578203 5.442688 -20.65454 11.76424 85.25341 32.1342 -16.75387 -0 0 17.18173 -6.15284 5.496744 3.153823 6.194177 -19.3943 -1.786728 -96.38867 25.42331 23.7808 0 0 -11.42202 11.56059 19.96852 -0.4290632
0.3381418 103.9445 1.226753 0.5801732 -2.301008 -0.4022617 4.479547 -16.64386 8.417376 -0 39.57479 -0 -7.803663 -14.80403 -1.96943 -7.009533 10.47528 -24.0722 -0 6.859765 -0 10.42401 -18.09358 29.72532 -3.422605 -3.518436 4.556659 2.179658 9.792306 -6.585359 1.972204 23.01004 6.267833 3.417616 -24.63396 9.521306 5.36311 -20.53129 11.74109 85.46798 32.09743 -17.04979 -0 0 16.85438 -6.491906 5.676519 3.325337 6.249885 -19.57736 -1.888623 -96.01686 25.41369 23.35343 0 0 -11.9892 11.3935 19.81158 -0.2222705
0.5895462 104.1576 3.081916 0.4365919 -1.968337 -0.4929423 4.37495 -19.77417 6.593733 -0 34.59411 -0 -7.92913 -11.81519 -1.916069 -6.615998 12.09873 -22.09451 -0 6.707848 -0 8.996515 -19.10535 27.18441 -3.17171 -3.17651 4.05087 2.230876 9.849467 -7.077648 1.705657 22.71904 6.565964 3.540708 -24.40777 9.233634 4.717957 -19.89265 11.58142 86.73206 31.42198 -18.63313 -0 0 15.1359 -8.335602 6.51319 4.104032 6.669102 -20.64326 -2.433446 -93.92841 24.80167 20.84721 0 0 -14.94557 11.21559 18.99555 -0.05520077
0.7877197 104.2318 5.34748 0.2252688 -1.292664 -0.5299992 4.613502 -22.0276 5.815634 -0 30.64323 -0 -7.771932 -10.62691 -1.868098 -6.313216 12.95121 -20.97713 -0 6.697641 -0 7.893464 -19.8105 25.46789 -2.900129 -3.061517 3.871853 2.346004 9.737932 -7.441664 1.566511 22.33703 6.737023 3.589876 -24.54268 9.137825 4.391605 -19.56394 11.45534 87.28367 31.18831 -19.61311 -0 0 14.47929 -9.079659 7.046691 4.364686 6.968204 -21.20228 -2.539193 -92.97111 24.52699 19.74389 0 0 -16.79727 10.95445 18.47889 0.2843915
0.9211882 104.148 8.101788 0.01457974 -0.7946429 -0.515065 4.799387 -24.27286 4.779376 -0 26.43276 -0 -7.746178 -9.007435 -1.762079 -6.010322 13.96503 -19.63853 -0 7.287556 -0 6.776852 -20.37503 23.63251 -2.572 -2.956468 3.65817 2.418043 9.717646 -7.777629 1.452789 21.99938 6.85996 3.634913 -24.58674 9.00257 3.878843 -19.18484 11.32053 88.04369 30.53721 -20.64811 -0 0 13.60105 -10.05255 7.534708 4.636729 7.324781 -21.89164 -2.746645 -91.81923 23.78583 18.32167 0 0 -18.63431 11.21056 17.95436 -0.06263334
0.995402 103.9572 11.34169 -0.2287939 -0.2739172 -0.468618 5.084799 -26.24391 3.909501 -0 22.45015 -0 -7.742252 -7.559103 -1.616923 -5.725021 14.81094 -18.39758 -0 8.480861 -0 5.6804 -20.72244 21.87806 -2.19392 -2.915139 3.519291 2.488073 9.709426 -8.071601 1.376406 21.64665 6.935144 3.669466 -24.70862 8.890525 3.381515 -18.85822 11.20059 88.72297 29.83503 -21.57193 -0 0 12.87655 -10.85267 7.950934 4.784832 7.652049 -22.50963 -2.892273 -90.91052 22.93933 17.19382 0 0 -20.15249 11.63295 17.49253 -0.6042947
1.010093 103.7011 15.10379 -0.4825718 0.1162957 -0.4045734 5.387204 -27.91516 2.995413 -0 18.68886 -0 -7.853 -5.893363 -1.414616 -5.462184 15.55557 -17.07386 -0 10.58138 -0 4.58813 -20.78485 20.0957 -1.761412 -2.903734 3.411145 2.526344 9.789805 -8.321336 1.32342 21.32214 6.964395 3.703663 -24.81274 8.753982 2.818596 -18.54289 11.10521 89.46597 28.90542 -22.44838 -0 0 12.10215 -11.71564 8.329567 4.899362 7.952106 -23.15505 -3.085066 -90.07284 21.81219 16.13593 0 0 -21.44485 12.34942 17.045 -1.520664
0.969801 103.456 19.41154 -0.7456992 0.3734783 -0.3388289 5.732519 -29.14116 2.109791 -0 15.37815 -0 -8.07682 -4.053523 -1.159172 -5.226602 16.06744 -15.69432 -0 13.79012 -0 3.500592 -20.4799 18.30233 -1.276291 -2.921413 3.359362 2.534583 9.972031 -8.523175 1.286865 21.0224 6.951658 3.74013 -24.91438 8.589121 2.240486 -18.26424 11.05366 90.2307 27.82413 -23.2497 -0 0 11.32961 -12.60962 8.694825 4.982692 8.178202 -23.79636 -3.32214 -89.38707 20.48983 15.29263 0 0 -22.44594 13.23997 16.6046 -2.646413
0.8813028 103.3175 24.27894 -1.001869 0.4254349 -0.2893028 6.111991 -29.75118 1.251202 -0 12.72175 -0 -8.435237 -1.993478 -0.8535756 -5.021027 16.22362 -14.22595 -0 18.35293 -0 2.442948 -19.71012 16.51273 -0.7449609 -2.954649 3.377207 2.502937 10.29894 -8.670267 1.256416 20.7652 6.89642 3.780058 -24.98181 8.374274 1.66344 -18.04344 11.06908 91.02259 26.59377 -23.96048 -0 0 10.55316 -13.58613 9.07803 5.068979 8.287023 -24.43896 -3.642566 -88.86035 18.98793 14.71327 0 0 -23.12807 14.24264 16.15451 -3.901448
0.7557192 103.4064 29.69025 -1.233578 0.2232077 -0.2762807 6.53577 -29.53607 0.4779408 -0 10.96054 -0 -8.920907 0.2110262 -0.5141644 -4.836785 15.83748 -12.68017 -0 24.41905 -0 1.457633 -18.38719 14.78429 -0.1829881 -2.991058 3.49277 2.428293 10.80111 -8.756855 1.219985 20.56156 6.799464 3.820929 -24.99563 8.093607 1.134584 -17.92437 11.17767 91.80511 25.28241 -24.54569 -0 0 9.830506 -14.64798 9.515895 5.185726 8.222271 -25.06153 -4.067441 -88.53182 17.39855 14.51394 0 0 -23.44783 15.21622 15.6942 -5.10118
0.6078983 103.8535 35.58357 -1.416886 -0.2847121 -0.322308 7.002417 -28.27917 -0.1511382 -0 10.27553 -0 -9.505192 2.406255 -0.1720126 -4.648139 14.69477 -11.07888 -0 31.95801 -0 0.6077237 -16.45801 13.20622 0.3817978 -3.012919 3.735256 2.309193 11.50306 -8.778388 1.163071 20.42511 6.661026 3.855399 -24.92343 7.730141 0.7034074 -17.96636 11.40448 92.52654 23.9759 -24.9595 -0 0 9.247418 -15.79701 10.04811 5.372273 7.931281 -25.63999 -4.616919 -88.42375 15.83909 14.80092 0 0 -23.3859 15.98941 15.23661 -6.0285
0.4552221 104.7743 41.83488 -1.528218 -1.118815 -0.4496697 7.494258 -25.81096 -0.5752886 -0 10.69923 -0 -10.12188 4.319068 0.1210748 -4.405585 12.58318 -9.46966 -0 40.59074 -0 -0.03972373 -13.95101 11.89372 0.9079515 -3.000669 4.130352 2.150533 12.4018 -8.734483 1.071056 20.36358 6.482434 3.870291 -24.73115 7.274148 0.4208883 -18.24193 11.76438 93.10581 22.79271 -25.14167 -0 0 8.93541 -17.0138 10.70927 5.674916 7.380913 -26.13938 -5.29113 -88.54887 14.4649 15.66762 0 0 -22.95791 16.3572 14.81034 -6.4301
0.3151152 106.225 48.25669 -1.551931 -2.247527 -0.6766435 7.963463 -22.08323 -0.7613032 -0 12.00136 -0 -10.66968 5.579252 0.2970693 -4.037741 9.360599 -7.913999 -0 49.44854 -0 -0.4362276 -11.01864 10.96547 1.344035 -2.93711 4.68637 1.964022 13.44982 -8.629584 0.9340318 20.37457 6.265559 3.846972 -24.38658 6.729499 0.3185566 -18.82225 12.24989 93.43952 21.85796 -25.01698 -0 0 9.056919 -18.2637 11.51401 6.145393 6.583094 -26.51909 -6.058763 -88.90416 13.43577 17.15345 0 0 -22.2261 16.12696 14.44669 -6.079298
0.2031372 108.1551 54.62445 -1.491779 -3.56284 -1.013813 8.336796 -17.23659 -0.7168668 -0 13.65085 -0 -11.0359 5.789239 0.2936479 -3.465291 5.038878 -6.475792 -0 57.15617 -0 -0.5785689 -7.950001 10.51323 1.640135 -2.816374 5.380284 1.767382 14.54026 -8.470889 0.7543891 20.4398 6.012086 3.764769 -23.87412 6.122456 0.3896907 -19.75319 12.8186 93.41573 21.27208 -24.49581 -0 0 9.776934 -19.49503 12.43854 6.828801 5.614104 -26.73375 -6.843785 -89.47817 12.87672 19.21757 0 0 -21.27769 15.17748 14.161 -4.85047
0.1336375 110.3832 60.73465 -1.37811 -4.883817 -1.463311 8.538417 -11.60809 -0.4893501 -0 14.94289 -0 -11.14889 4.659383 0.0933128 -2.627097 -0.1535787 -5.209201 -0 62.08687 -0 -0.5204374 -5.116926 10.57322 1.765639 -2.652481 6.149819 1.579015 15.5144 -8.262032 0.5536357 20.52617 5.721975 3.60752 -23.20996 5.504654 0.5787666 -21.02769 13.38923 92.9438 21.07174 -23.48289 -0 0 11.2108 -20.64071 13.40882 7.744791 4.609568 -26.73522 -7.528578 -90.26039 12.83386 21.73512 0 0 -20.1672 13.52194 13.94311 -2.791625
